<?xml version="1.0" encoding="UTF-8"?>
<!DOCTYPE svg PUBLIC "-//W3C//DTD SVG 1.1//EN" "http://www.w3.org/Graphics/SVG/1.1/DTD/svg11.dtd">
<svg xmlns="http://www.w3.org/2000/svg" version="1.1" width="225px" height="225px" style="shape-rendering:geometricPrecision; text-rendering:geometricPrecision; image-rendering:optimizeQuality; fill-rule:evenodd; clip-rule:evenodd" xmlns:xlink="http://www.w3.org/1999/xlink">
<g><path style="opacity:1" fill="#ff8000" d="M -0.5,-0.5 C 74.5,-0.5 149.5,-0.5 224.5,-0.5C 224.5,74.5 224.5,149.5 224.5,224.5C 149.5,224.5 74.5,224.5 -0.5,224.5C -0.5,149.5 -0.5,74.5 -0.5,-0.5 Z"/></g>
<g><path style="opacity:1" fill="#fffdfc" d="M 107.5,41.5 C 112.655,40.8895 117.322,42.0562 121.5,45C 130.333,54.1667 139.167,63.3333 148,72.5C 150.671,57.1641 158.671,53.4974 172,61.5C 173.439,63.2746 174.439,65.2746 175,67.5C 175.667,80.8333 175.667,94.1667 175,107.5C 171.05,117.054 164.217,119.887 154.5,116C 140.333,101.833 126.167,87.6667 112,73.5C 97.8333,87.6667 83.6667,101.833 69.5,116C 62.4629,118.884 56.2962,117.717 51,112.5C 47.4873,106.587 47.8207,100.92 52,95.5C 70.0909,76.9068 88.5909,58.9068 107.5,41.5 Z"/></g>
<g><path style="opacity:1" fill="#fffcfb" d="M 58.5,145.5 C 93.8349,145.333 129.168,145.5 164.5,146C 174.559,149.844 177.392,156.677 173,166.5C 171.062,169.106 168.562,170.939 165.5,172C 129.833,172.667 94.1667,172.667 58.5,172C 49.0747,167.656 46.5747,160.823 51,151.5C 53.1141,148.879 55.6141,146.879 58.5,145.5 Z"/></g>
</svg>
