<?xml version="1.0" encoding="UTF-8"?>
<!DOCTYPE svg PUBLIC "-//W3C//DTD SVG 1.1//EN" "http://www.w3.org/Graphics/SVG/1.1/DTD/svg11.dtd">
<svg xmlns="http://www.w3.org/2000/svg" version="1.1" width="181px" height="180px" style="shape-rendering:geometricPrecision; text-rendering:geometricPrecision; image-rendering:optimizeQuality; fill-rule:evenodd; clip-rule:evenodd" xmlns:xlink="http://www.w3.org/1999/xlink">
<g><path style="opacity:0.982" fill="#5faa30" d="M 82.5,-0.5 C 87.1667,-0.5 91.8333,-0.5 96.5,-0.5C 114.016,7.52979 118.85,20.5298 111,38.5C 101.259,50.1761 89.4259,52.6761 75.5,46C 63.8239,36.2593 61.3239,24.4259 68,10.5C 71.8568,5.46777 76.6901,1.8011 82.5,-0.5 Z"/></g>
<g><path style="opacity:0.965" fill="#d6d70f" d="M 25.5,9.5 C 44.6869,7.8098 54.1869,16.4765 54,35.5C 50.4142,49.2079 41.5809,55.3745 27.5,54C 13.0928,49.8996 7.25949,40.3996 10,25.5C 12.685,17.6498 17.8517,12.3165 25.5,9.5 Z"/></g>
<g><path style="opacity:0.966" fill="#d6d70f" d="M 140.5,9.5 C 161.313,8.14609 170.813,17.8128 169,38.5C 161.188,54.4162 149.354,58.2496 133.5,50C 121.874,38.3467 121.54,26.3467 132.5,14C 135.099,12.205 137.766,10.705 140.5,9.5 Z"/></g>
<g><path style="opacity:0.978" fill="#08803c" d="M 82.5,61.5 C 106.785,60.0334 118.285,71.3667 117,95.5C 111.978,112.101 100.811,119.268 83.5,117C 66.899,111.978 59.7323,100.811 62,83.5C 63.472,76.0437 67.3054,70.2103 73.5,66C 76.5919,64.4541 79.5919,62.9541 82.5,61.5 Z"/></g>
<g><path style="opacity:0.982" fill="#5faa30" d="M -0.5,96.5 C -0.5,91.8333 -0.5,87.1667 -0.5,82.5C 7.52979,64.9838 20.5298,60.1504 38.5,68C 50.1761,77.7407 52.6761,89.5741 46,103.5C 36.2593,115.176 24.4259,117.676 10.5,111C 5.46777,107.143 1.8011,102.31 -0.5,96.5 Z"/></g>
<g><path style="opacity:0.981" fill="#5faa30" d="M 147.5,64.5 C 170.647,62.8131 181.147,73.4797 179,96.5C 171.185,114.111 158.351,118.944 140.5,111C 128.824,101.259 126.324,89.4259 133,75.5C 136.857,70.4678 141.69,66.8011 147.5,64.5 Z"/></g>
<g><path style="opacity:0.966" fill="#d6d70f" d="M 27.5,124.5 C 45.6439,124.476 54.4772,133.476 54,151.5C 49.8996,165.907 40.3996,171.741 25.5,169C 11.1006,163.029 6.26729,152.529 11,137.5C 14.7718,130.877 20.2718,126.543 27.5,124.5 Z"/></g>
<g><path style="opacity:0.966" fill="#d6d70f" d="M 143.5,124.5 C 162.656,124.817 171.156,134.484 169,153.5C 163.954,166.61 154.454,171.777 140.5,169C 128.539,164.256 123.372,155.423 125,142.5C 127.815,132.848 133.982,126.848 143.5,124.5 Z"/></g>
<g><path style="opacity:0.981" fill="#5faa30" d="M 96.5,179.5 C 91.8333,179.5 87.1667,179.5 82.5,179.5C 64.9838,171.47 60.1504,158.47 68,140.5C 75.1229,130.9 84.6229,127.4 96.5,130C 114.111,137.815 118.944,150.649 111,168.5C 107.143,173.532 102.31,177.199 96.5,179.5 Z"/></g>
</svg>
